<svg width="24" height="25" viewBox="0 0 24 25" fill="none" xmlns="http://www.w3.org/2000/svg">
    <path fill-rule="evenodd" clip-rule="evenodd" d="M11.5 15.5C13.1569 15.5 14.5 14.1569 14.5 12.5C14.5 10.8431 13.1569 9.5 11.5 9.5C9.84315 9.5 8.5 10.8431 8.5 12.5C8.5 14.1569 9.84315 15.5 11.5 15.5Z" stroke="#275CB0" stroke-width="1.5" stroke-linecap="round" stroke-linejoin="round" />
    <path fill-rule="evenodd" clip-rule="evenodd" d="M19.5 12.5C19.4988 11.9239 19.4358 11.3496 19.312 10.787L22.026 8.732L20.026 5.268L16.883 6.594C16.0319 5.8137 15.0217 5.22723 13.922 4.875L13.5 1.5H9.5L9.078 4.875C7.97834 5.22723 6.96814 5.8137 6.117 6.594L2.974 5.268L0.973999 8.732L3.688 10.787C3.43739 11.9153 3.43739 13.0847 3.688 14.213L0.973999 16.268L2.974 19.732L6.117 18.406C6.96814 19.1863 7.97834 19.7728 9.078 20.125L9.5 23.5H13.5L13.922 20.125C15.0217 19.7728 16.0319 19.1863 16.883 18.406L20.026 19.732L22.026 16.268L19.312 14.213C19.4358 13.6504 19.4988 13.0761 19.5 12.5Z" stroke="#212121" stroke-width="1.5" stroke-linecap="round" stroke-linejoin="round" />
</svg>
